<svg width="500" height="500" viewBox="0 0 500 500" fill="none" xmlns="http://www.w3.org/2000/svg">
<rect width="500" height="500" fill="black"/>
<rect x="52" y="177" width="20" height="20" fill="#290000"/>
<rect x="52" y="127" width="20" height="20" fill="#290000"/>
<rect x="52" y="227" width="20" height="20" fill="#290000"/>
<rect x="52" y="202" width="20" height="20" fill="#290000"/>
<rect x="52" y="152" width="20" height="20" fill="#290000"/>
<rect x="252" y="277" width="20" height="20" fill="#290000"/>
<rect x="252" y="177" width="20" height="20" fill="#290000"/>
<rect x="252" y="377" width="20" height="20" fill="#290000"/>
<rect x="252" y="127" width="20" height="20" fill="#290000"/>
<rect x="252" y="327" width="20" height="20" fill="#290000"/>
<rect x="252" y="227" width="20" height="20" fill="#290000"/>
<rect x="252" y="302" width="20" height="20" fill="#290000"/>
<rect x="252" y="202" width="20" height="20" fill="#290000"/>
<rect x="252" y="402" width="20" height="20" fill="#290000"/>
<rect x="252" y="152" width="20" height="20" fill="#290000"/>
<rect x="252" y="352" width="20" height="20" fill="#290000"/>
<rect x="252" y="252" width="20" height="20" fill="#290000"/>
<rect x="152" y="77" width="20" height="20" fill="#290000"/>
<rect x="152" y="277" width="20" height="20" fill="#290000"/>
<rect x="152" y="177" width="20" height="20" fill="#290000"/>
<rect x="152" y="127" width="20" height="20" fill="#290000"/>
<rect x="152" y="327" width="20" height="20" fill="#290000"/>
<rect x="152" y="227" width="20" height="20" fill="#290000"/>
<rect x="152" y="102" width="20" height="20" fill="#290000"/>
<rect x="152" y="302" width="20" height="20" fill="#290000"/>
<rect x="152" y="202" width="20" height="20" fill="#290000"/>
<rect x="152" y="152" width="20" height="20" fill="#290000"/>
<rect x="152" y="252" width="20" height="20" fill="#290000"/>
<rect x="352" y="77" width="20" height="20" fill="#290000"/>
<rect x="352" y="277" width="20" height="20" fill="#290000"/>
<rect x="352" y="177" width="20" height="20" fill="#290000"/>
<rect x="352" y="127" width="20" height="20" fill="#290000"/>
<rect x="352" y="227" width="20" height="20" fill="#290000"/>
<rect x="352" y="102" width="20" height="20" fill="#290000"/>
<rect x="352" y="302" width="20" height="20" fill="#290000"/>
<rect x="352" y="202" width="20" height="20" fill="#290000"/>
<rect x="352" y="152" width="20" height="20" fill="#290000"/>
<rect x="352" y="252" width="20" height="20" fill="#290000"/>
<rect x="77" y="177" width="20" height="20" fill="#290000"/>
<rect x="77" y="127" width="20" height="20" fill="#290000"/>
<rect x="77" y="227" width="20" height="20" fill="#290000"/>
<rect x="77" y="102" width="20" height="20" fill="#290000"/>
<rect x="77" y="202" width="20" height="20" fill="#290000"/>
<rect x="77" y="152" width="20" height="20" fill="#290000"/>
<rect x="77" y="252" width="20" height="20" fill="#290000"/>
<rect x="277" y="277" width="20" height="20" fill="#290000"/>
<rect x="277" y="177" width="20" height="20" fill="#290000"/>
<rect x="277" y="377" width="20" height="20" fill="#290000"/>
<rect x="277" y="127" width="20" height="20" fill="#290000"/>
<rect x="277" y="327" width="20" height="20" fill="#290000"/>
<rect x="277" y="227" width="20" height="20" fill="#290000"/>
<rect x="277" y="102" width="20" height="20" fill="#290000"/>
<rect x="277" y="302" width="20" height="20" fill="#290000"/>
<rect x="277" y="202" width="20" height="20" fill="#290000"/>
<rect x="277" y="152" width="20" height="20" fill="#290000"/>
<rect x="277" y="352" width="20" height="20" fill="#290000"/>
<rect x="277" y="252" width="20" height="20" fill="#290000"/>
<rect x="177" y="77" width="20" height="20" fill="#290000"/>
<rect x="177" y="277" width="20" height="20" fill="#290000"/>
<rect x="177" y="177" width="20" height="20" fill="#290000"/>
<rect x="177" y="127" width="20" height="20" fill="#290000"/>
<rect x="177" y="327" width="20" height="20" fill="#290000"/>
<rect x="177" y="227" width="20" height="20" fill="#290000"/>
<rect x="177" y="102" width="20" height="20" fill="#290000"/>
<rect x="177" y="302" width="20" height="20" fill="#290000"/>
<rect x="177" y="202" width="20" height="20" fill="#290000"/>
<rect x="177" y="152" width="20" height="20" fill="#290000"/>
<rect x="177" y="352" width="20" height="20" fill="#290000"/>
<rect x="177" y="252" width="20" height="20" fill="#290000"/>
<rect x="377" y="277" width="20" height="20" fill="#290000"/>
<rect x="377" y="177" width="20" height="20" fill="#290000"/>
<rect x="377" y="127" width="20" height="20" fill="#290000"/>
<rect x="377" y="227" width="20" height="20" fill="#290000"/>
<rect x="377" y="102" width="20" height="20" fill="#290000"/>
<rect x="377" y="202" width="20" height="20" fill="#290000"/>
<rect x="377" y="152" width="20" height="20" fill="#290000"/>
<rect x="377" y="252" width="20" height="20" fill="#290000"/>
<rect x="102" y="277" width="20" height="20" fill="#290000"/>
<rect x="102" y="177" width="20" height="20" fill="#290000"/>
<rect x="102" y="127" width="20" height="20" fill="#290000"/>
<rect x="102" y="227" width="20" height="20" fill="#290000"/>
<rect x="102" y="102" width="20" height="20" fill="#290000"/>
<rect x="102" y="202" width="20" height="20" fill="#290000"/>
<rect x="102" y="152" width="20" height="20" fill="#290000"/>
<rect x="102" y="252" width="20" height="20" fill="#290000"/>
<rect x="302" y="77" width="20" height="20" fill="#290000"/>
<rect x="302" y="277" width="20" height="20" fill="#290000"/>
<rect x="302" y="177" width="20" height="20" fill="#290000"/>
<rect x="302" y="127" width="20" height="20" fill="#290000"/>
<rect x="302" y="327" width="20" height="20" fill="#290000"/>
<rect x="302" y="227" width="20" height="20" fill="#290000"/>
<rect x="302" y="102" width="20" height="20" fill="#290000"/>
<rect x="302" y="302" width="20" height="20" fill="#290000"/>
<rect x="302" y="202" width="20" height="20" fill="#290000"/>
<rect x="302" y="152" width="20" height="20" fill="#290000"/>
<rect x="302" y="352" width="20" height="20" fill="#290000"/>
<rect x="302" y="252" width="20" height="20" fill="#290000"/>
<rect x="202" y="277" width="20" height="20" fill="#290000"/>
<rect x="202" y="177" width="20" height="20" fill="#290000"/>
<rect x="202" y="377" width="20" height="20" fill="#290000"/>
<rect x="202" y="127" width="20" height="20" fill="#290000"/>
<rect x="202" y="327" width="20" height="20" fill="#290000"/>
<rect x="202" y="227" width="20" height="20" fill="#290000"/>
<rect x="202" y="102" width="20" height="20" fill="#290000"/>
<rect x="202" y="302" width="20" height="20" fill="#290000"/>
<rect x="202" y="202" width="20" height="20" fill="#290000"/>
<rect x="202" y="152" width="20" height="20" fill="#290000"/>
<rect x="202" y="352" width="20" height="20" fill="#290000"/>
<rect x="202" y="252" width="20" height="20" fill="#290000"/>
<rect x="402" y="177" width="20" height="20" fill="#290000"/>
<rect x="402" y="127" width="20" height="20" fill="#290000"/>
<rect x="402" y="227" width="20" height="20" fill="#290000"/>
<rect x="402" y="102" width="20" height="20" fill="#290000"/>
<rect x="402" y="202" width="20" height="20" fill="#290000"/>
<rect x="402" y="152" width="20" height="20" fill="#290000"/>
<rect x="402" y="252" width="20" height="20" fill="#290000"/>
<rect x="127" y="77" width="20" height="20" fill="#290000"/>
<rect x="127" y="277" width="20" height="20" fill="#290000"/>
<rect x="127" y="177" width="20" height="20" fill="#290000"/>
<rect x="127" y="127" width="20" height="20" fill="#290000"/>
<rect x="127" y="227" width="20" height="20" fill="#290000"/>
<rect x="127" y="102" width="20" height="20" fill="#290000"/>
<rect x="127" y="302" width="20" height="20" fill="#290000"/>
<rect x="127" y="202" width="20" height="20" fill="#290000"/>
<rect x="127" y="152" width="20" height="20" fill="#290000"/>
<rect x="127" y="252" width="20" height="20" fill="#290000"/>
<rect x="327" y="77" width="20" height="20" fill="#290000"/>
<rect x="327" y="277" width="20" height="20" fill="#290000"/>
<rect x="327" y="177" width="20" height="20" fill="#290000"/>
<rect x="327" y="127" width="20" height="20" fill="#290000"/>
<rect x="327" y="327" width="20" height="20" fill="#290000"/>
<rect x="327" y="227" width="20" height="20" fill="#290000"/>
<rect x="327" y="102" width="20" height="20" fill="#290000"/>
<rect x="327" y="302" width="20" height="20" fill="#290000"/>
<rect x="327" y="202" width="20" height="20" fill="#290000"/>
<rect x="327" y="152" width="20" height="20" fill="#290000"/>
<rect x="327" y="252" width="20" height="20" fill="#290000"/>
<rect x="227" y="277" width="20" height="20" fill="#290000"/>
<rect x="227" y="177" width="20" height="20" fill="#290000"/>
<rect x="227" y="377" width="20" height="20" fill="#290000"/>
<rect x="227" y="127" width="20" height="20" fill="#290000"/>
<rect x="227" y="327" width="20" height="20" fill="#290000"/>
<rect x="227" y="227" width="20" height="20" fill="#290000"/>
<rect x="227" y="302" width="20" height="20" fill="#290000"/>
<rect x="227" y="202" width="20" height="20" fill="#290000"/>
<rect x="227" y="402" width="20" height="20" fill="#290000"/>
<rect x="227" y="152" width="20" height="20" fill="#290000"/>
<rect x="227" y="352" width="20" height="20" fill="#290000"/>
<rect x="227" y="252" width="20" height="20" fill="#290000"/>
<rect x="427" y="177" width="20" height="20" fill="#290000"/>
<rect x="427" y="127" width="20" height="20" fill="#290000"/>
<rect x="427" y="227" width="20" height="20" fill="#290000"/>
<rect x="427" y="202" width="20" height="20" fill="#290000"/>
<rect x="427" y="152" width="20" height="20" fill="#290000"/>
</svg>
